<?xml version="1.0" ?><svg id="Layer_1" style="enable-background:new 0 0 100 100;" version="1.1" viewBox="0 0 100 100" xml:space="preserve" xmlns="http://www.w3.org/2000/svg" xmlns:xlink="http://www.w3.org/1999/xlink"><path d="M89.1,28.7H10.9c-1.4,0-2.5,1.1-2.5,2.5l1,5.9c0.1,1.4,1.2,2.4,2.5,2.4h13c1.5,0.7,14.6,7,17.7,31.7l0,0  c0.1,1.7,1.3,3.2,2.9,3.5c1.5,0.3,3,0.5,4.5,0.5s3-0.2,4.5-0.5c1.7-0.3,2.9-1.9,2.9-3.6V71c2.9-23.3,14.9-30.2,17.3-31.4h13.4  c1.4,0,2.5-1.1,2.5-2.4l1-5.8l0-0.2C91.7,29.9,90.5,28.7,89.1,28.7z M28.9,39.6h1.3c6.8,0,12.4,5.5,12.4,12.4v9  C39,48.5,32.8,42.3,28.9,39.6z M57.4,60.8V52c0-6.8,5.5-12.4,12.4-12.4h1.1C67,42.4,60.9,48.5,57.4,60.8z M88.7,36.9l0,0.2  c0,0.3-0.2,0.5-0.5,0.5H74.6l0-0.1c0,0-0.1,0-0.2,0.1h-4.5c-7.9,0-14.4,6.4-14.4,14.4v18.9c0,0,0,0,0,0.1l0,0v0.3  c0,0.8-0.6,1.5-1.3,1.7c-2.7,0.6-5.5,0.6-8.2,0c-0.8-0.2-1.3-0.9-1.3-1.7V52c0-7.9-6.4-14.4-14.4-14.4H11.9c-0.3,0-0.5-0.2-0.5-0.5  l-1-5.9c0-0.3,0.3-0.5,0.5-0.5h78.3c0.3,0,0.5,0.2,0.5,0.5L88.7,36.9z"/></svg>