<?xml version="1.0" ?><svg id="Layer_1" style="enable-background:new 0 0 100 100;" version="1.1" viewBox="0 0 100 100" xml:space="preserve" xmlns="http://www.w3.org/2000/svg" xmlns:xlink="http://www.w3.org/1999/xlink"><path d="M15.2,25.7v5.1v1.9v41.4c0,1.3,1,2.3,2.3,2.3h27c0.9,0,1.7-0.7,1.8-1.6L48,62.7H52l1.7,12.1c0.1,0.9,0.9,1.6,1.8,1.6h27  c1.3,0,2.3-1,2.3-2.3V32.7v-1.9v-5.1c0-1.2-1-2.1-2.1-2.1H17.3C16.1,23.6,15.2,24.5,15.2,25.7z M39.1,49.7v-17h43.8v37.5H55L53.9,62  c5.2-1.7,9-6.5,9-12.2V41c0-0.5-0.4-1-1-1c-0.5,0-1,0.4-1,1v8.8c0,6-4.9,10.9-10.9,10.9S39.1,55.8,39.1,49.7z M55.3,72.1h27.6v2  c0,0.2-0.2,0.4-0.4,0.4H55.6L55.3,72.1z M17.1,74.1v-2h27.6l-0.3,2.4H17.4C17.3,74.5,17.1,74.3,17.1,74.1z M17.1,32.7h20.1v17  c0,5.7,3.8,10.6,9,12.2L45,70.2H17.1V32.7z M17.1,30.8v-5.1c0-0.1,0.1-0.2,0.2-0.2h65.4c0.1,0,0.2,0.1,0.2,0.2v5.1H17.1z"/></svg>