<!-- icon666.com - MILLIONS vector ICONS FREE --><svg id="Capa_1" enable-background="new 0 0 512.019 512.019" viewBox="0 0 512.019 512.019" xmlns="http://www.w3.org/2000/svg"><g><path d="m256.01 512.019c-11.131 0-22.262-1.585-29.591-4.754-1.55-.67-2.829-1.845-3.629-3.333-19.441-36.176-66.933-82.665-120.085-101.523-10.919-3.875-17.106-15.729-14.086-26.99l12.018-44.796c.484-1.804 1.624-3.362 3.195-4.37 6.477-4.152 14.141-5.476 21.586-3.726 5.168 1.215 9.793 3.802 13.499 7.482 4.675-1.907 9.779-2.514 14.879-1.716 5.297.83 10.144 3.101 14.129 6.555 4.674-2.149 9.849-2.969 15.064-2.332 5.287.646 10.175 2.729 14.253 6.009 4.574-2.351 9.697-3.397 14.933-2.998 5.283.406 10.234 2.251 14.437 5.319 4.461-2.583 9.538-3.897 14.795-3.745 5.269.143 10.276 1.726 14.604 4.555 4.327-2.829 9.335-4.412 14.604-4.555 5.267-.147 10.334 1.163 14.795 3.745 4.202-3.068 9.153-4.913 14.437-5.319 5.235-.403 10.359.646 14.933 2.998 4.078-3.28 8.966-5.363 14.253-6.009 5.221-.639 10.392.183 15.065 2.332 3.984-3.454 8.831-5.725 14.128-6.555 5.102-.798 10.205-.192 14.879 1.716 3.706-3.681 8.331-6.267 13.499-7.482 7.444-1.748 15.109-.426 21.586 3.726 1.571 1.008 2.711 2.566 3.195 4.37l12.018 44.796c3.021 11.26-3.167 23.115-14.086 26.99-53.152 18.858-100.644 65.347-120.085 101.523-.8 1.488-2.079 2.663-3.629 3.333-7.332 3.169-18.463 4.754-29.593 4.754zm-21.377-17.678c10.984 3.556 31.77 3.556 42.754 0 20.939-37.21 68.841-85.466 126.912-106.07 3.594-1.275 5.62-5.213 4.613-8.966l-2.123-7.916c-16.845 4.117-37.536 7.952-58.987 10.916-4.102.564-7.889-2.3-8.456-6.403-.566-4.103 2.3-7.889 6.403-8.456 20.827-2.878 40.864-6.582 57.152-10.548l-5.156-19.219c-2.449-.963-5.113-1.162-7.711-.551-3.579.842-6.628 3.108-8.585 6.381-1.093 1.828-2.911 3.105-5.002 3.513-2.088.405-4.255-.092-5.954-1.375-2.896-2.186-6.428-3.087-9.947-2.534-3.604.565-6.787 2.577-8.961 5.666-1.195 1.698-3.041 2.825-5.099 3.111-2.057.29-4.141-.292-5.755-1.6-2.831-2.292-6.338-3.317-9.882-2.884-3.61.441-6.846 2.336-9.111 5.337-1.261 1.669-3.162 2.736-5.244 2.943-2.09.206-4.155-.466-5.721-1.855-2.74-2.433-6.216-3.621-9.781-3.347-3.61.277-6.912 2.015-9.295 4.894-1.339 1.617-3.293 2.599-5.39 2.707-2.094.111-4.143-.667-5.64-2.136-2.632-2.582-6.032-3.956-9.648-3.853-3.604.098-6.97 1.66-9.476 4.4-1.421 1.553-3.429 2.438-5.534 2.438s-4.113-.885-5.534-2.438c-2.506-2.74-5.871-4.302-9.476-4.4-3.614-.105-7.016 1.271-9.648 3.853-1.498 1.469-3.543 2.247-5.64 2.136-2.097-.108-4.051-1.09-5.39-2.707-2.383-2.879-5.685-4.617-9.295-4.894-3.574-.272-7.042.915-9.781 3.347-1.564 1.389-3.631 2.061-5.721 1.855-2.082-.207-3.983-1.274-5.244-2.943-2.266-3-5.501-4.896-9.111-5.337-3.542-.432-7.052.592-9.882 2.884-1.614 1.307-3.697 1.888-5.755 1.6-2.058-.287-3.903-1.413-5.099-3.111-2.174-3.089-5.356-5.101-8.961-5.666-3.521-.553-7.052.348-9.947 2.534-1.699 1.283-3.866 1.782-5.954 1.375-2.091-.408-3.909-1.685-5.002-3.513-1.957-3.273-5.006-5.539-8.585-6.381-2.598-.61-5.262-.412-7.711.551l-5.156 19.22c35.685 8.689 93.166 17.035 146.892 17.035 18.904 0 38.961-.999 59.614-2.969 4.126-.391 7.784 2.63 8.178 6.754s-2.63 7.785-6.754 8.179c-21.124 2.015-41.66 3.037-61.038 3.037-58.677 0-116.512-9.161-150.779-17.543l-2.123 7.915c-1.007 3.753 1.02 7.691 4.613 8.966 58.072 20.602 105.973 68.858 126.913 106.068zm35.928-170.404c-5.187 0-10.176-1.41-14.552-4.065-4.61 2.797-9.903 4.217-15.385 4.053-5.456-.158-10.627-1.862-15.045-4.893-4.766 2.555-10.136 3.689-15.611 3.24-5.414-.446-10.463-2.404-14.695-5.638-4.894 2.327-10.318 3.203-15.78 2.489-5.349-.701-10.265-2.875-14.315-6.268-4.974 2.138-10.425 2.81-15.843 1.901-5.392-.906-10.283-3.309-14.233-6.924-5.226 1.817-10.828 2.083-16.266.713-7.414-1.869-13.612-6.569-17.453-13.235-.656-1.139-1.002-2.43-1.002-3.745v-47.253c-7.415-18.018-12.621-38.991-2.753-69.396 1.279-3.94 5.509-6.097 9.449-4.818 3.939 1.279 6.097 5.509 4.818 9.449-8.161 25.145-4.941 41.736 2.897 60.356 3.446 8.185 14.236 22.458 47.783 26.083 21.723 2.346 46.776-.884 68.455-8.678-31.219-70.631-66.749-112.1-75.622-121.851h-22.484c-3.668 6.219-6.943 12.146-9.762 17.661-1.885 3.689-6.401 5.151-10.092 3.266-3.688-1.885-5.15-6.403-3.266-10.091 3.251-6.362 7.068-13.221 11.359-20.413v-81.659c0-18.87 15.352-34.221 34.222-34.221 1.838 0 3.651.144 5.429.425 6.226-6.426 14.941-10.425 24.572-10.425 10.628 0 20.469 4.81 26.999 13.195l43.624 56.018 43.624-56.018c6.531-8.385 16.372-13.195 27-13.195 9.632 0 18.347 3.999 24.571 10.425 1.777-.281 3.591-.425 5.429-.425 18.87 0 34.222 15.352 34.222 34.221v81.659c34.284 57.455 33.959 86.354 20.784 118.431v47.255c0 1.314-.346 2.606-1.002 3.745-3.841 6.666-10.039 11.366-17.453 13.235-5.437 1.37-11.039 1.104-16.266-.713-3.95 3.615-8.842 6.018-14.233 6.924-5.423.91-10.87.237-15.843-1.901-4.051 3.392-8.967 5.566-14.315 6.268-5.46.712-10.887-.162-15.78-2.489-4.233 3.233-9.281 5.192-14.695 5.638-5.471.449-10.847-.685-15.611-3.24-4.418 3.031-9.589 4.735-15.045 4.893-.279.007-.557.011-.835.011zm-14.551-21.004c1.893 0 3.784.712 5.242 2.136 2.655 2.595 6.117 3.976 9.707 3.862 3.59-.104 6.934-1.663 9.417-4.388 2.752-3.021 7.42-3.284 10.492-.585 2.81 2.467 6.349 3.659 9.952 3.363 3.566-.293 6.809-2.016 9.129-4.851 2.598-3.174 7.263-3.672 10.474-1.118 2.943 2.342 6.553 3.372 10.154 2.897 3.538-.464 6.681-2.331 8.851-5.256 2.463-3.321 7.15-4.021 10.477-1.568 3.039 2.242 6.694 3.146 10.293 2.539 3.513-.59 6.579-2.562 8.634-5.552 2.267-3.298 6.725-4.234 10.127-2.129 3.243 2.008 6.995 2.617 10.559 1.718 2.86-.721 5.336-2.358 7.122-4.68v-24.904c-10.924 8.731-26.44 14.414-45.584 16.483-25.758 2.784-55.73-1.543-80.693-11.591-3.15.666-8.771 1.656-14.352 1.656s-11.201-.99-14.352-1.656c-24.964 10.048-54.93 14.373-80.693 11.591-19.144-2.069-34.66-7.752-45.584-16.483v24.904c1.786 2.321 4.262 3.958 7.122 4.68 3.564.899 7.313.29 10.559-1.718 3.406-2.105 7.861-1.167 10.127 2.129 2.055 2.99 5.121 4.961 8.634 5.552 3.597.605 7.253-.297 10.293-2.539 3.328-2.456 8.016-1.752 10.477 1.568 2.17 2.926 5.312 4.792 8.851 5.256 3.6.472 7.211-.556 10.154-2.897 3.212-2.555 7.876-2.055 10.474 1.118 2.32 2.835 5.562 4.558 9.129 4.851 3.604.296 7.144-.897 9.952-3.363 3.074-2.697 7.739-2.437 10.492.585 2.483 2.725 5.827 4.284 9.417 4.388 3.603.115 7.052-1.267 9.707-3.862 1.455-1.424 3.347-2.136 5.24-2.136zm24.979-45.625c21.678 7.794 46.727 11.026 68.454 8.678 33.547-3.625 44.337-17.897 47.783-26.083 11.96-28.41 12.441-52.643-18.131-104.446h-22.48c-8.875 9.773-44.475 51.381-75.626 121.851zm-34.613-2.354c2.557.479 6.176 1.01 9.634 1.01 3.445 0 7.073-.533 9.635-1.012 10.133-23.368 20.716-43.681 30.788-60.896l-40.423-51.907-40.423 51.907c10.072 17.215 20.656 37.529 30.789 60.898zm19.139-125.012 39.234 50.381c19.211-30.632 35.381-49.145 41.104-55.349v-90.753c0-1.867-.268-3.672-.766-5.379-1.34 1.01-2.559 2.206-3.621 3.57l-57.059 73.269 25.619 32.897c2.545 3.268 1.959 7.981-1.309 10.526-3.268 2.543-7.98 1.959-10.525-1.309l-23.291-29.908zm-66.784 37.233c2.759 4.103 5.612 8.483 8.538 13.148l39.234-50.381-75.952-97.531c-1.062-1.364-2.281-2.559-3.621-3.57-.498 1.708-.766 3.513-.766 5.38v90.752c3.862 4.187 12.483 13.981 23.585 29.321l23.82-30.586c2.545-3.269 7.258-3.854 10.525-1.309s3.854 7.258 1.309 10.526zm162.123-46.718h15v-76.236c0-9.569-7.029-17.528-16.196-18.983.78 2.864 1.196 5.876 1.196 8.983zm-224.689 0h15v-86.236c0-3.107.416-6.12 1.196-8.983-9.167 1.456-16.196 9.414-16.196 18.983zm110.457-14.777 9.388 12.055 9.388-12.055-9.388-12.055zm18.893-24.261 9.388 12.055 54.73-70.279c1.761-2.261 3.762-4.262 5.954-5.979-2.676-1.415-5.723-2.216-8.955-2.216-5.969 0-11.496 2.702-15.165 7.412zm-89.084-64.203c2.192 1.717 4.193 3.718 5.954 5.979l54.73 70.279 9.388-12.055-45.952-59.008c-3.668-4.709-9.196-7.411-15.165-7.411-3.232 0-6.279.801-8.955 2.216z"></path></g></svg>