<!-- icon666.com - MILLIONS vector ICONS FREE --><svg version="1.1" id="Capa_1" xmlns="http://www.w3.org/2000/svg" xmlns:xlink="http://www.w3.org/1999/xlink" x="0px" y="0px" viewBox="0 0 517.167 517.167" style="enable-background:new 0 0 517.167 517.167;" xml:space="preserve"><g><g><path d="M458.803,297.04c0-33.995-27.56-61.563-61.563-61.563c-13.856,0-26.603,4.638-36.892,12.364 c-7.517-7.487-15.922-14.038-24.939-19.728c20.436-20.11,33.134-48.061,33.134-78.996c0-10.29-1.511-20.206-4.131-29.663 c28.458-4.781,50.155-29.462,50.155-59.278C414.567,26.947,387.629,0,354.39,0c-28.075,0-51.59,19.25-58.235,45.25 c-12.001-4.447-24.93-7-38.479-7c-12.804,0-25.054,2.286-36.491,6.273C214.29,18.896,190.948,0,163.14,0 c-33.229,0-60.177,26.938-60.177,60.177c0,29.089,20.636,53.349,48.071,58.953c-2.678,9.553-4.217,19.574-4.217,29.978 c0,31.403,13.11,59.699,34.1,79.866c-8.578,5.556-16.582,11.905-23.763,19.106c-10.347-7.88-23.218-12.613-37.227-12.613 c-33.995,0-61.563,27.56-61.563,61.563c0,32.532,25.255,59.105,57.222,61.344c0.382,6.406,1.071,12.737,2.276,18.896 c-28.573,20.588-32.751,65.226-8.979,100.932c24.231,36.396,68.257,49.658,98.331,29.635c7.334-4.887,13.139-11.322,17.404-18.752 c10.997,2.696,22.424,4.283,34.253,4.283c11.886,0,23.361-1.597,34.405-4.322c4.274,7.449,10.079,13.895,17.433,18.791 c30.074,20.023,74.101,6.761,98.331-29.635c23.82-35.772,19.584-80.525-9.132-101.056c1.186-6.13,1.874-12.422,2.257-18.801 C433.864,355.82,458.803,329.361,458.803,297.04z M268.146,414.975l-1.444-0.229c-58.675-24.098-81.291-81.473-55.453-105.57 c25.848-24.098,55.462,5.192,55.462,5.192h0.211c0,0,29.605-29.29,55.453-5.192C348.213,333.272,326.832,390.877,268.146,414.975z "></path></g></g></svg>