<!-- icon666.com - MILLIONS vector ICONS FREE --><svg id="Layer_1" viewBox="0 0 24 24" xmlns="http://www.w3.org/2000/svg" data-name="Layer 1"><path d="m13 10.09h-9.59a1.92 1.92 0 0 1 -1.91-1.91v-1.91a1.92 1.92 0 0 1 1.91-1.91h9.59a1.91 1.91 0 0 1 1.91 1.91v1.91a1.91 1.91 0 0 1 -1.91 1.91zm-9.59-3.82v1.91h9.59v-1.9z"></path><path d="m10.82 23.45a5 5 0 0 1 -3.54-1.45l-2.47-2.48a4.81 4.81 0 0 1 -1.4-3.38v-8h9.59v5.33l1.4 1.4a5 5 0 0 1 1.36 2.53 4.81 4.81 0 0 1 .11 1 5 5 0 0 1 -5 5zm-5.5-13.36v6.05a2.85 2.85 0 0 0 .84 2l2.47 2.47a3.2 3.2 0 0 0 4.38 0 3.11 3.11 0 0 0 .9-2.19 2.56 2.56 0 0 0 -.07-.62 3.06 3.06 0 0 0 -.84-1.54l-1.95-2v-4.17z"></path><path d="m17.5 19.64a5 5 0 0 1 -3.36-1.3l-.23-.21-.07-.3a3.06 3.06 0 0 0 -.84-1.57l-1.95-2v-6.08h1.95v-3.82h6.69v5.34l1.31 1.4a5 5 0 0 1 -3.54 8.54zm-1.87-2.54a3.17 3.17 0 0 0 4.06-.28 3.1 3.1 0 0 0 0-4.37l-2-2v-4.18h-2.83v1.91a1.91 1.91 0 0 1 -1.86 1.91v3.42l1.4 1.4a5 5 0 0 1 1.23 2.19z"></path><path d="m19.64 6.27h-9.55a1.91 1.91 0 0 1 -1.91-1.91v-1.91a1.91 1.91 0 0 1 1.91-1.9h9.55a1.91 1.91 0 0 1 1.91 1.9v1.91a1.91 1.91 0 0 1 -1.91 1.91zm-9.55-3.82v1.91h9.55v-1.9z"></path></svg>