<!-- icon666.com - MILLIONS vector ICONS FREE --><svg id="Capa_1" enable-background="new 0 0 512.021 512.021" viewBox="0 0 512.021 512.021" xmlns="http://www.w3.org/2000/svg"><path d="m512.021 236.581-28.478-144.321c-6.594-33.419-32.182-60.454-65.188-68.875l-91.603-23.374h-141.482l-91.603 23.374c-33.007 8.421-58.595 35.456-65.188 68.875l-28.479 144.321h86.082v275.43h339.857v-275.43zm-204.294-206.57c-6.513 22.419-27.224 38.857-51.716 38.857s-45.203-16.438-51.716-38.857zm-271.229 176.57 21.412-108.513c4.368-22.133 21.314-40.038 43.174-45.615l73.212-18.681c8.546 37.233 41.927 65.096 81.715 65.096s73.169-27.863 81.715-65.096l73.213 18.681c21.858 5.577 38.805 23.482 43.173 45.615l21.412 108.513h-49.584v-53.857h-30v111.404c-45.313 7.884-90.563 2.79-138.25-2.593-46.121-5.207-93.638-10.558-141.607-3.174v-105.637h-30v53.857zm359.441 160.832c-45.31 7.882-90.56 2.789-138.246-2.593-46.124-5.206-93.641-10.558-141.611-3.173v-72.895c45.309-7.883 90.559-2.788 138.243 2.595 29.865 3.37 60.307 6.807 91.085 6.807 16.757-.001 33.616-1.026 50.529-3.629zm-279.857 114.598v-89.975c45.312-7.884 90.562-2.788 138.247 2.594 29.864 3.37 60.307 6.807 91.085 6.807 16.756 0 33.613-1.025 50.525-3.629v84.203z"></path></svg>